<svg height="512" viewBox="0 0 64 64" width="512" xmlns="http://www.w3.org/2000/svg"><path d="m37 15.051v-1.051a.957.957 0 0 0 -.288-.694.978.978 0 0 0 -.712-.306 1 1 0 0 0 -1 1v1.051c.333-.019.662-.051 1-.051s.667.032 1 .051z"/><path d="m36 17a16.007 16.007 0 0 0 -15.949 15h31.9a16.007 16.007 0 0 0 -15.951-15zm0 4a11.975 11.975 0 0 0 -11.077 7.377l-1.846-.772a13.972 13.972 0 0 1 12.923-8.605z"/><path d="m19 36h34a1 1 0 0 0 0-2h-34a1 1 0 0 0 0 2z"/><path d="m50.223 48.422-1.07-6.422h-26.306l-.347 2.094a23.5 23.5 0 0 1 8.485 2.373 5.091 5.091 0 0 0 2.26.533h7.755a3.5 3.5 0 0 1 3.5 3.5 3.4 3.4 0 0 1 -.037.367z"/><path d="m53.879 50.885a1.651 1.651 0 0 0 -.9-.931 1.585 1.585 0 0 0 -1.249 0l-8.36 3.55a6.183 6.183 0 0 1 -2.308.488c-.021 0-.04.006-.06.006-.021 0-.041 0-.062 0h-11.94v-1.998h11.938c.133 0 .262-.027.393-.039a1.5 1.5 0 0 0 -.331-2.961h-7.757a7.089 7.089 0 0 1 -3.154-.744 21.473 21.473 0 0 0 -9.554-2.256h-2.535v9.452l8.227 3.417a15.3 15.3 0 0 0 11.252.122l15.448-5.891a1.648 1.648 0 0 0 .925-.886 1.71 1.71 0 0 0 .027-1.329z"/><path d="m30.5 38-1.5 2h14l-1.5-2z"/><path d="m4 57h12v-12h-12zm8-4h2v2h-2z"/><path d="m35 5h2v4h-2z"/><path d="m27 13h4v2h-4z"/><path d="m41 13h4v2h-4z"/><path d="m38.586 8.414h4v2h-4z" transform="matrix(.707 -.707 .707 .707 5.231 31.456)"/><path d="m30.414 7.414h2v4h-2z" transform="matrix(.707 -.707 .707 .707 2.546 24.973)"/></svg>